# xmcd CD database file
#
# Track frame offsets:
#	150
#	17501
#	40324
#	53584
#	76947
#	95078
#	112042
#	124458
#	143232
#	156482
#	171544
#	185988
#	207631
#	224287
#	240573
#	256153
#	279898
#	293335
#	308436
#
# Disc length: 4268 seconds
#
# Revision: 0
# Processed by: cddbd v1.5.2PL0 Copyright (c) Steve Scherf et al.
# Submitted via: CDex 1.70beta1
#
DISCID=1810aa13
DTITLE=Charleston Chasers  - Just Imagine
DYEAR=1900
DGENRE=Jazz
TTITLE0=California Here I Come 
TTITLE1=Mean To Me 
TTITLE2=Yes Sir That's My Baby 
TTITLE3=You Went Away Once Too Often 
TTITLE4=Chinese Whispers 
TTITLE5=River And Me, The 
TTITLE6=When The Saints 
TTITLE7=Walking My Baby Back Home 
TTITLE8=Girlfriend, The 
TTITLE9=Walking With Susie 
TTITLE10=Symphonic Raps 
TTITLE11=You'll Never Know 
TTITLE12=Louisiana Bo Bo 
TTITLE13=My Extraordinary Gal 
TTITLE14=Just Imagine 
TTITLE15=Way You Look Tonight, The 
TTITLE16=Forgetting You 
TTITLE17=Cooking Breakfast For The One I Love 
TTITLE18=Brotherly Love 
EXTD=
EXTT0=
EXTT1=
EXTT2=
EXTT3=
EXTT4=
EXTT5=
EXTT6=
EXTT7=
EXTT8=
EXTT9=
EXTT10=
EXTT11=
EXTT12=
EXTT13=
EXTT14=
EXTT15=
EXTT16=
EXTT17=
EXTT18=
PLAYORDER=
